<?xml version="1.0" encoding="utf-8"?>
<!-- Generator: Adobe Illustrator 18.0.0, SVG Export Plug-In . SVG Version: 6.00 Build 0)  -->
<!DOCTYPE svg PUBLIC "-//W3C//DTD SVG 1.1//EN" "http://www.w3.org/Graphics/SVG/1.1/DTD/svg11.dtd">
<svg version="1.1" id="Ebene_1" xmlns="http://www.w3.org/2000/svg" xmlns:xlink="http://www.w3.org/1999/xlink" x="0px" y="0px"
	 viewBox="0 0 24 24" enable-background="new 0 0 24 24" xml:space="preserve">
<g>
	<path fill="#FE0606" d="M17.8,24C11.9,24,6,24,0,24C0,16,0,8,0,0c0.6,0,1.3,0,2,0c2.5,3.8,4.9,0.5,7.4,0c1.4,0,2.8,0,4.2,0
		c2,1.4,3.7,3.2,5.9,4c3.8,1.4,4.7,4,4.5,8.2c-1.4-2.3-2.7-2.7-2.8-0.2c0,1.5,1.3,3,0.3,4.7c-2.9-8.2-9.6-3-15.2-4.8
		c1.8,5.8,4.5,9.6,10,10C18.6,22.1,17.3,23.3,17.8,24z M12.7,7.8c0.1,2.3,1.2,2.7,3.8,2C15.2,8.7,15.1,7.2,12.7,7.8z"/>
</g>
</svg>
