<?xml version="1.0" encoding="utf-8"?>
<!-- Generator: Adobe Illustrator 18.0.0, SVG Export Plug-In . SVG Version: 6.00 Build 0)  -->
<!DOCTYPE svg PUBLIC "-//W3C//DTD SVG 1.1//EN" "http://www.w3.org/Graphics/SVG/1.1/DTD/svg11.dtd">
<svg version="1.1" id="Ebene_1" xmlns="http://www.w3.org/2000/svg" xmlns:xlink="http://www.w3.org/1999/xlink" x="0px" y="0px"
	 viewBox="0 0 338.2 287.2" enable-background="new 0 0 338.2 287.2" xml:space="preserve">
<g>
	<path fill="#BBBCBF" d="M20.1,114.9c0-16.3,0.1-32.7-0.1-49c0-2.4,0.4-4.2,2.4-5.6c0.7-0.5,1.3-1.1,1.8-1.8
		c3.4-4.3,8.1-6.6,12.6-9.4c4.1-2.5,8-5.5,12.4-7.4c6.8-3,13-7,20-9.7c7.5-3,15-5.5,22.6-8.2c2.1-0.8,4.7,0.5,6.3-1.6
		c3.5,0.8,6.7-1.2,10.1-1c3.5,0.1,7.1-0.5,10.5,0.2c2.9,0.6,5.8,0.5,8.6,0.9c2.7,0.4,5-1,7.6-1.1c2.4-0.1,4.7-0.1,7.1-0.7
		c2.4-0.6,5-0.9,7.5-1.3c5.7-1,11.3-2.3,16.6-4.5c6.7-2.8,13.2-6,19.9-8.7c4.2-1.7,8.3-3.8,13-3.7c3.3-2.1,7.1-0.7,10.7-1.8
		c3.9-1.2,8.3,0.5,12.3,1.3c7.7,1.4,14.8,4.6,21.2,9.2c3.5,2.6,6.6,5.9,9.9,8.8c4.7,4.1,9.5,7.9,14.9,11c6.5,3.7,13.3,6.5,20.4,8.6
		c5.9,1.8,9.8,5.6,12.3,11.1c0.7,1.4,0.3,2.9,0.4,4.3c0.1,1.3-0.1,2.7,0,4c0.1,1.3-0.7,2.8,0.6,3.7c1.3,0.8,1.6,2.1,2,3.2
		c3.7,8.7,7.9,17.2,9.3,26.6c2.1,2.1,0.3,5,1.6,7.4c1.1,2.2,0.3,4.9,0.4,7.3c0,0.7,0.1,1.4-0.8,1.5c-0.8,0.1-1-0.3-1.2-1.1
		c-1-4.6-2.7-8.8-5-12.9c-3-5.5-5.9-11.1-10.3-15.7c-0.3-0.3-0.5-0.8-0.8-1.2c-1.4-2.4-1.3-2.2-3.4-0.1c-3.2,3.2-5.3,7.6-10.1,9.2
		c-1.8,0.6-1.9,2.3-0.7,4c2.5,3.6,5.1,11,6.4,15.4c2.7,9.1,3,18.4,3,27.8c0,2.2-1.3,4-1.2,6.1c0,0.5-0.8,1.3-1.3,1.4
		c-0.9,0.1-0.5-0.9-0.6-1.4c-1-3.2-1.3-6.5-2.1-9.7c-0.9-3.7-2.5-7.3-3.6-11c-2.5-8.1-7.9-14.4-12.4-21.3c-0.8-1.2-0.9-2.9-2.5-3.4
		c-1.3-0.4-2.3,0.8-3.5,1.2c-2.7,0.7-5.4,0.8-8.1,0.8c-1.4,0-3,0.7-4.1-0.9c-7.4-0.8-14.7-3.3-22.1-1.9c-4.8,0.9-9.8,0.5-14.3,2.8
		c-3.6-0.6-6.9,1.4-10.6,1.1c-4.1-0.3-8.3-0.1-12.5-0.1c-3.2,0-6.3-0.2-9.4-1.5c-2.4-1-5.4-1.5-7.7,0.9c-0.7,0.8-1.2,1.4-1.1,2.6
		c0.2,2.1-0.1,4.1,0.9,6.1c0.9,1.8,1,3.9,1.6,5.8c1.9,6.6,5.8,12.3,9.1,18.2c2.2,4.1,5.8,7.2,8.1,11.1c1.6,2.6,4.3,4.3,5.5,7.2
		c0.6,1.4,2.1,2.8,3.5,3.3c1.4,0.5,2.2,1.5,3,2.4c8.2,8.7,7.6,7.3,18.4,13.3c4.3,2.4,9.1,4,13.2,6.6c2.4,1.5,5.1,1.3,7.4,2.8
		c0.4,0.2,6.1-1.5,6.7-1.9c3.4-2.2,6.4-4.8,8.4-8.4c0.6-1.1,1.4-2.1,2.1-3.1c0.7-1,2.2-1.5,2.2-3.1c0-0.5,0.8-0.5,1.3-0.4
		c0.5,0.1,0.6,0.6,0.6,1.2c0.1,6.3-1.8,12-5,17.4c-2.1,3.4-5,5.8-8.1,8c-3.8,2.7-8.2,3.2-12.4,2.1c-4-1-8.3-0.9-12-3.6
		c-3.3-2.4-7.5-3.5-11.2-5.5c-9.7-5.1-19.4-10.4-29-15.7c-3-1.7-5.9-3.2-9.3-4.1c-3.2-0.8-6.1-2.9-9.3-4.1c-4.4-1.7-9-3.3-13.4-5.1
		c-4.7-1.9-9.5-2.9-14.5-3.7c-4.5-0.8-9-2.1-13.7-2c-2.5-1.7-5.4-0.7-8.1-1c-2.2-0.3-4.3-1.2-6.6-1c-2.2,0.2-4.5,0.4-6.6-1
		c-4.9,0.8-9.7-1.8-14.6-0.9c-4.5,0.8-9,0.9-13.5,2.4c-3.6,1.3-7.5,2.1-11.1,3.3c-3.9,1.3-7.9,2.6-11.8,4c-3.8,1.4-7.2,3.5-10.9,5.1
		c-5.8,2.6-11.5,5.3-17.2,8c-1.5,0.7-3.3,1.4-4.3,2.9c-0.8,1.2-1.9,1-3.1,1.1c-1,0-1.6-0.2-1.5-1.3c0.1-1.2,0-2.3,0-3.5
		C20.1,146.5,20.1,130.7,20.1,114.9z M221.1,69.5c0.3,1.1-0.5,2.5,0.5,3.7c2.1,2.4,3.6,5.3,6.5,7.1c3.2,2,6.9,2,10.3,2.9
		c0.7,0.2,1.6,0.1,2.4-0.2c7.1-2,10.8-7.1,10.3-14.4c-0.1-1.1-1.5-2-2.4-1.3c-0.7,0.5-1.3,1.2-1.7,2.2c-0.5,1.2-0.9,2.7-2.2,3.6
		c-0.6,0.4-1.7,0.2-1.6-0.3c0.5-2.4-1.8-4.3-1-6.6c1-3.2-1.5-4.5-3.3-5.5c-2.9-1.5-5.6-3.3-8.5-4.7c-2.3-1.1-4-1.1-4.7,0.4
		C223.5,60.4,220.7,64.4,221.1,69.5z"/>
	<path fill="#FE0C0C" d="M251,258.7c0-8.7,0-17.3,0-26c0-2.5,0-2.6,2.2-2.5c3.1,0,6.3,0.1,9.4,0.1c0.8,3.1,0.3,6.2,0.3,9.3
		c0.1,6.5,0.1,13,0,19.5c0,1.3,0.1,2.3,1.8,2c0.8-0.1,1.7-0.1,2.5,0c1.1,0.1,2-0.1,1.8-1.6c-0.1-0.8,0.1-1.7,0-2.5
		c-0.2-1.4,0.2-2,1.8-2c4.2,0,4.1-0.1,4.2-4.1c0.1-2.6-0.6-5.3,0.4-7.8c2.5,0,5-0.1,7.5-0.1c1.6,0,3.9-0.4,4.7,0.4
		c0.9,0.9,0.3,3.1,0.4,4.7c0,0.7,0,1.3,0,2c0,1.5,0.5,3.3-0.2,4.4c-0.8,1.2-2.8,0.5-4.2,0.4c-1.4-0.1-1.6,0.6-1.6,1.8c0.1,1,0,2,0,3
		c0.1,1.2-0.6,1.3-1.5,1.3c-1.4,0.1-3.4-0.7-4.2,0.4c-0.7,1-0.1,2.9-0.3,4.3c-0.2,1.7,0.2,2.6,2.1,2.2c0.8-0.1,1.7,0,2.5,0
		c1-0.1,1.5,0.3,1.4,1.4c0,0.2,0,0.3,0,0.5c0.2,1.3-0.6,3,0.3,3.8c0.9,0.7,2.5,0.4,3.8,0.3c1.6-0.1,1.9,0.5,1.9,2
		c-0.1,2.7,0,5.3,0,8c0,2.2-0.8,3-2.8,3.1c-2.5,0.1-5,0.1-7.5,0c-1.8,0-2.7-0.9-2.7-2.6c-0.1-3-0.1-6,0-9c0-1.1-0.4-1.3-1.5-1.4
		c-4.3-0.3-4.3-0.3-4.5-4.3c-0.1-1.2-0.3-1.9-1.6-1.7c-1,0.1-2,0.1-3,0c-1.1-0.1-1.4,0.3-1.4,1.4c0,4.8,0.1,9.7,0,14.5
		c0,2.4-0.7,3.1-3.2,3.1c-2.8,0-5.6-0.1-8.4-0.1c-0.8-2.8-0.3-5.6-0.3-8.3C251,272,251,265.4,251,258.7z"/>
	<path fill="#FE0C0C" d="M18.8,287.2c-5.7,0-11.3-0.1-17,0c-1.7,0-1.8-0.6-1.8-2c0.1-4.8,0-9.7,0-14.5c0-2.9,0.5-3.3,3.3-3.5
		c2.5-0.2,2.5-0.2,2.7-2.6c0.2-2.9,0.6-3.3,3.5-3.4c0.7,0,1.3,0,2,0c1,0.1,1.5-0.1,1.5-1.3c0-1.5-0.4-3.3,0.3-4.3
		c0.8-1.1,2.8-0.3,4.2-0.4c1,0,1.6-0.3,1.4-1.4c0-0.2,0-0.3,0-0.5c0.1-1.3-0.3-2.9,0.4-3.8c0.7-1,2.5-0.4,3.8-0.3
		c1.6,0.1,2-0.5,1.9-2c-0.1-2.8-0.1-5.7,0-8.5c0.1-1.4-0.5-1.6-1.7-1.6c-6.2,0-12.3,0-18.5,0c-4.7,0-4.9-0.3-4.9-5
		c0-1.4,0.3-2.2,1.9-2c0.2,0,0.3,0,0.5,0c11.2,0,22.3,0,33.5,0c1.6,0,2.3,0.1,2.3,2.1c-0.2,5-0.1,10,0,15c0,1.4-0.3,2.1-1.9,2
		c-1.3-0.1-2.9-0.3-3.8,0.3c-1,0.7-0.4,2.5-0.3,3.8c0.1,1.5-0.5,2.1-2,1.9c-0.7-0.1-1.3,0-2,0c-2.2,0.1-2.9,0.8-3.1,2.8
		c-0.2,1.4,0.8,3.3-0.6,4.1c-1,0.6-2.6,0.2-3.9,0.1c-1-0.1-1.6,0.3-1.4,1.4c0,0.2,0,0.3,0,0.5c-0.1,1.3,0.3,2.9-0.4,3.8
		c-0.7,1-2.5,0.4-3.8,0.3c-1.6-0.1-2,0.5-1.9,2c0.1,2.8,0.1,5.7,0,8.5c-0.1,1.4,0.5,1.6,1.7,1.6c7.2,0,14.3,0,21.5-0.1
		c1.6,0,2,0.6,1.8,2c0,0.2,0,0.3,0,0.5c0.1,4.5,0.1,4.5-4.2,4.5C28.8,287.2,23.8,287.2,18.8,287.2z"/>
	<path fill="#FE0C0C" d="M300,264.2c0-3.3-0.1-6.7,0-10c0-1.6-0.7-3.7,0.4-4.7c0.9-0.8,2.8-0.3,4.3-0.3c1.2,0,1.2-0.7,1.2-1.6
		c0.2-5.4,0.3-5.4,5.9-5.4c5.5,0,11,0,16.5,0c3.2,0,3.5,0.4,3.6,3.7c0,0.7,0,1.3,0,2c-0.1,1.2,0.6,1.3,1.5,1.3
		c1.4,0.1,3.4-0.7,4.2,0.4c0.7,1,0.3,2.9,0.3,4.3c0,3.8,0,7.6,0,11.5c0,2.7,0,2.7-2.5,2.7c-7,0-14,0-21,0c-1,0-1.5,0.2-1.5,1.3
		c0.1,3.5,0.1,6.9,0.2,10.4c3.3,0.7,6.6,0.2,9.9,0.3c1.8,0.1,3.7,0,5.5,0c1.1,0.1,2.8-0.6,3.2,0.4c0.6,1.6,0.6,3.6,0,5.3
		c-0.2,0.6-0.9,1.3-1.9,1.3c-7.2,0-14.3,0-21.5,0c-1.4,0-2.4-0.9-2.4-2.5c0-0.3,0-0.7,0-1c-0.1-3.4-0.1-3.4-3.3-3.5
		c-0.2,0-0.3,0-0.5,0c-2.2-0.1-2.2-0.1-2.2-2.6C300,273.1,300,268.6,300,264.2z M313,254.9c0.1,0,0.1,0,0.2,0c0,2,0,3.9,0,5.9
		c2.1,0.8,4.2,0.3,6.3,0.3c1.8,0,4.2,0.9,5.2-0.4c0.9-1.2,0.3-3.5,0.3-5.3c0-2-0.1-3.9-0.1-5.9c-2.1-0.8-4.2-0.3-6.3-0.3
		c-1.8,0-4.2-0.9-5.2,0.4C312.5,250.8,313,253.1,313,254.9z"/>
	<path fill="#FE0C0C" d="M238,268.4c0,5.7-0.1,11.3,0,17c0,1.7-0.7,1.8-2,1.8c-8.8-0.1-17.7,0-26.5,0c-2.9,0-3.4-0.6-3.5-3.4
		c0-0.8,0-1.7,0-2.5c0-0.8-0.4-1.1-1.2-1.1c-1.2,0-2.3,0-3.5,0c-1.1,0.1-1.4-0.4-1.4-1.5c0.1-2.7,0-5.3,0-8c0-2.9,0.5-3.3,3.3-3.5
		c2.5-0.2,2.5-0.2,2.7-2.6c0.2-2.9,0.6-3.3,3.5-3.4c4.7,0,9.3,0,14,0c1,0,1.6-0.2,1.5-1.3c0-0.3,0-0.7,0-1c-0.1-3.1-0.1-6.3-0.2-9.4
		c-3.1-0.6-6.3-0.2-9.4-0.3c-1.8-0.1-3.7,0.1-5.5,0c-1.3-0.1-3.2,0.8-3.7-0.4c-0.6-1.4-0.5-3.3-0.1-4.9c0.2-1,1.2-1.7,2.7-1.7
		c3.5,0.1,7,0,10.5,0c3.2,0,6.3,0,9.5,0c2.4,0,3.1,0.7,3.2,3.1c0,0.8,0.1,1.7,0,2.5c-0.1,1.1,0.4,1.4,1.4,1.4c1.5,0,3.4-0.7,4.2,0.4
		c0.7,1,0.3,2.8,0.3,4.3C238.1,258.7,238,263.6,238,268.4z M213.2,273.4c-0.1,0-0.1,0-0.2,0c0,1.8,0,3.7,0,5.5
		c0,1.2,0.6,1.4,1.5,1.3c0.5,0,1,0,1.5,0c2.9-0.2,5.9,0.4,8.8-0.3c0.1-2.8,0.1-5.6,0.2-8.4c0-4.3,0-4.3-4.5-4.3c-0.5,0-1,0-1.5,0
		c-1.9,0.2-4.6-0.9-5.6,0.5C212.5,268.9,213.2,271.5,213.2,273.4z"/>
	<path fill="#FE0C0C" d="M151,264.4c0-6.3,0-12.6,0-19c0-1.6,0-2.3,2.1-2.3c9,0.2,18,0.1,26.9,0c1.4,0,2.3,0.1,2,1.8
		c-0.1,0.8,0,1.7,0,2.5c-0.1,1.2,0.1,1.9,1.6,1.7c0.8-0.1,1.7,0.1,2.5,0c1.5-0.2,2,0.3,2,1.9c-0.1,11.1,0,22.3,0,33.4
		c0,1.2-0.2,1.9-1.6,1.7c-3.4-0.3-6.9,0.5-10.3-0.4c0-3.1-0.1-6.3-0.1-9.4c0-8.5,0-17,0-25.5c0-1.2-0.2-1.8-1.6-1.7
		c-3.8,0.3-7.6-0.4-11.3,0.4c0,3.5-0.1,7-0.1,10.4c0,8.2,0,16.3,0,24.5c0,1.2-0.1,1.9-1.6,1.7c-3.4-0.3-6.9,0.5-10.3-0.4
		c0-3.1-0.1-6.3-0.1-9.4C151,272.4,151,268.4,151,264.4z"/>
	<path fill="#FE0C0C" d="M69.5,242.2c5.5,0,11,0,16.5,0c1.4,0,2.1,0.1,2,1.8c-0.1,2.3,0,4.7,0,7c0,4.1,0,4.1-4.1,4.2
		c-1.5,0-2.2,0.4-1.9,1.9c0.1,0.3,0,0.7,0,1c-0.2,1.3,0.6,3-0.3,3.8c-0.9,0.7-2.5,0.4-3.8,0.3c-1.6-0.1-1.9,0.6-1.9,2
		c-0.1,3.7-0.3,3.8-3.8,4c-0.2,0-0.3,0-0.5,0c-1.3-0.2-1.9,0.3-1.7,1.6c0.1,0.5,0,1,0,1.5c-0.2,2.2-0.8,2.7-3,2.9
		c-1.3,0.1-3-0.7-3.7,0.4c-0.6,1-0.2,2.6-0.3,3.9c-0.1,1.2,0.2,1.8,1.6,1.7c3.5-0.1,7,0,10.5,0c3.2,0,6.3,0,9.5,0
		c3.4,0,3.4,0,3.4,3.4c0,3.6,0,3.6-3.7,3.6c-10,0-20,0-30,0c-4.3,0-4.3-0.1-4.3-4.5c0-0.7,0-1.3,0-2c0-2-0.7-4.5,0.2-5.9
		c1-1.6,3.7-0.4,5.6-0.6c0.8-0.1,1.2-0.3,1.2-1.1c0-1-0.1-2,0-3c0.1-2.1,0.8-2.7,3-2.9c2.9-0.2,2.9-0.2,3-3.3c0-0.3,0-0.7,0-1
		c-0.1-1.2,0.2-1.9,1.6-1.7c1,0.1,2,0,3,0c1.1,0.1,1.5-0.3,1.4-1.4c0-0.2,0-0.3,0-0.5c0.2-1.3-0.6-3,0.4-3.8
		c0.9-0.7,2.5-0.4,3.8-0.3c1.6,0.1,1.9-0.6,1.9-2c0-4,0.1-4-3.8-4c-5.8,0-11.7,0-17.5,0c-3.4,0-5-2.4-3.6-5.6c0.4-1,1.5-1.5,2.9-1.5
		C58.5,242.3,64,242.2,69.5,242.2z"/>
	<path fill="#FE0C0C" d="M118.3,287.2c-5.5,0-11-0.1-16.5,0c-1.6,0-1.9-0.6-1.8-2c0.1-3,0.2-6,0-9c-0.2-2.1,0.7-2.2,2.3-2.1
		c0.8,0.1,1.7,0,2.5,0c1.2,0.1,1.4-0.6,1.3-1.5c0-0.2,0-0.3,0-0.5c0.1-4.8,0.1-5,4.9-4.9c1.9,0,2.4-0.5,2.1-2.2
		c-0.1-0.8,0-1.7,0-2.5c-0.1-1.1,0.4-1.5,1.5-1.3c0.3,0,0.7,0,1,0c3.4-0.1,3.4-0.1,3.5-3.7c0.1-2.2,0.1-2.2,2.5-2.3
		c0.7,0,1.3-0.1,2,0c1,0.1,1.6-0.2,1.5-1.3c-0.1-1-0.1-2,0-3c0.1-1.2-0.2-1.8-1.6-1.7c-4.3,0.1-8.7,0-13,0c-2.3,0-4.7,0.1-7,0
		c-1.1,0-2.8,0.6-3.2-0.4c-0.6-1.6-0.6-3.6,0.1-5.3c0.4-1.1,1.6-1.3,2.9-1.3c7.7,0.1,15.3,0,23,0c3,0,6,0,9,0c2.1,0,2.8,0.8,2.8,3
		c0,1.5,0,3,0,4.5c0,1.7,0.6,3.7-0.2,4.9c-0.8,1.4-3,0.4-4.6,0.6c-0.7,0.1-1.3,0.2-1.2,1.1c0,0.3,0,0.7,0,1c0.5,4.3-0.8,5.5-4.9,4.9
		c-2-0.3-2.3,0.6-2.1,2.2c0.1,0.8,0,1.7,0,2.5c0.1,1.2-0.5,1.4-1.5,1.3c-0.5-0.1-1,0-1.5,0c-2.9,0.1-2.9,0.1-3,2.8c0,0.5,0,1,0,1.5
		c0.1,1.2-0.1,1.9-1.6,1.7c-0.8-0.1-1.7,0.1-2.5,0c-1.5-0.2-2,0.3-2,1.9c0,4.1-0.1,4.1,4.2,4.2c6.5,0,13,0,19.5,0
		c1.1,0,1.5,0.3,1.4,1.4c-0.1,0.8,0,1.7,0,2.5c-0.1,2.4-0.7,3.1-3.2,3.1C129.3,287.2,123.8,287.2,118.3,287.2z"/>
</g>
</svg>
